<svg width="494" height="408" viewBox="0 0 494 408" fill="none" xmlns="http://www.w3.org/2000/svg">
<rect x="31.5381" y="168" width="22" height="4" rx="2" transform="rotate(22.6196 31.5381 168)" fill="#D9D9D9"/>
<rect x="54.3844" y="193.769" width="22" height="4" rx="2" transform="rotate(22.6196 54.3844 193.769)" fill="#D9D9D9"/>
<rect x="77.2307" y="219.539" width="22" height="4" rx="2" transform="rotate(22.6196 77.2307 219.539)" fill="#D9D9D9"/>
<rect x="100.077" y="245.308" width="22" height="4" rx="2" transform="rotate(22.6196 100.077 245.308)" fill="#D9D9D9"/>
<rect x="122.923" y="271.077" width="22" height="4" rx="2" transform="rotate(22.6196 122.923 271.077)" fill="#D9D9D9"/>
<rect x="237.385" y="318.769" width="22" height="4" rx="2" transform="rotate(22.6196 237.385 318.769)" fill="#D9D9D9"/>
<rect x="230.462" y="335.384" width="22" height="4" rx="2" transform="rotate(22.6196 230.462 335.384)" fill="#D9D9D9"/>
<rect x="214.539" y="292.999" width="22" height="4" rx="2" transform="rotate(22.6196 214.539 292.999)" fill="#D9D9D9"/>
<rect x="60.1536" y="179.923" width="22" height="4" rx="2" transform="rotate(22.6196 60.1536 179.923)" fill="#D9D9D9"/>
<rect x="82.9999" y="205.692" width="22" height="4" rx="2" transform="rotate(22.6196 82.9999 205.692)" fill="#D9D9D9"/>
<rect x="105.846" y="231.462" width="22" height="4" rx="2" transform="rotate(22.6196 105.846 231.462)" fill="#D9D9D9"/>
<rect x="128.692" y="257.231" width="22" height="4" rx="2" transform="rotate(22.6196 128.692 257.231)" fill="#D9D9D9"/>
<rect x="151.539" y="283" width="22" height="4" rx="2" transform="rotate(22.6196 151.539 283)" fill="#D9D9D9"/>
<rect x="144.616" y="299.615" width="22" height="4" rx="2" transform="rotate(22.6196 144.616 299.615)" fill="#D9D9D9"/>
<rect x="266" y="330.692" width="22" height="4" rx="2" transform="rotate(22.6196 266 330.692)" fill="#D9D9D9"/>
<rect x="248.923" y="291.076" width="22" height="4" rx="2" transform="rotate(22.6196 248.923 291.076)" fill="#D9D9D9"/>
<rect x="283.308" y="289.153" width="22" height="4" rx="2" transform="rotate(22.6196 283.308 289.153)" fill="#D9D9D9"/>
<rect x="317.693" y="287.23" width="22" height="4" rx="2" transform="rotate(22.6196 317.693 287.23)" fill="#D9D9D9"/>
<rect x="88.769" y="191.846" width="22" height="4" rx="2" transform="rotate(22.6196 88.769 191.846)" fill="#D9D9D9"/>
<rect x="111.615" y="217.615" width="22" height="4" rx="2" transform="rotate(22.6196 111.615 217.615)" fill="#D9D9D9"/>
<rect x="134.462" y="243.384" width="22" height="4" rx="2" transform="rotate(22.6196 134.462 243.384)" fill="#D9D9D9"/>
<rect x="157.308" y="269.154" width="22" height="4" rx="2" transform="rotate(22.6196 157.308 269.154)" fill="#D9D9D9"/>
<rect x="180.154" y="294.923" width="22" height="4" rx="2" transform="rotate(22.6196 180.154 294.923)" fill="#D9D9D9"/>
<rect x="173.231" y="311.538" width="22" height="4" rx="2" transform="rotate(22.6196 173.231 311.538)" fill="#D9D9D9"/>
<rect x="243.154" y="304.922" width="22" height="4" rx="2" transform="rotate(22.6196 243.154 304.922)" fill="#D9D9D9"/>
<rect x="277.539" y="302.999" width="22" height="4" rx="2" transform="rotate(22.6196 277.539 302.999)" fill="#D9D9D9"/>
<rect x="311.923" y="301.076" width="22" height="4" rx="2" transform="rotate(22.6196 311.923 301.076)" fill="#D9D9D9"/>
<rect x="346.308" y="299.153" width="22" height="4" rx="2" transform="rotate(22.6196 346.308 299.153)" fill="#D9D9D9"/>
<rect x="117.384" y="203.769" width="22" height="4" rx="2" transform="rotate(22.6196 117.384 203.769)" fill="#D9D9D9"/>
<rect x="140.231" y="229.538" width="22" height="4" rx="2" transform="rotate(22.6196 140.231 229.538)" fill="#D9D9D9"/>
<rect x="163.077" y="255.307" width="22" height="4" rx="2" transform="rotate(22.6196 163.077 255.307)" fill="#D9D9D9"/>
<rect x="185.923" y="281.077" width="22" height="4" rx="2" transform="rotate(22.6196 185.923 281.077)" fill="#D9D9D9"/>
<rect x="208.77" y="306.846" width="22" height="4" rx="2" transform="rotate(22.6196 208.77 306.846)" fill="#D9D9D9"/>
<rect x="201.847" y="323.461" width="22" height="4" rx="2" transform="rotate(22.6196 201.847 323.461)" fill="#D9D9D9"/>
<rect x="271.77" y="316.845" width="22" height="4" rx="2" transform="rotate(22.6196 271.77 316.845)" fill="#D9D9D9"/>
<rect x="306.154" y="314.922" width="22" height="4" rx="2" transform="rotate(22.6196 306.154 314.922)" fill="#D9D9D9"/>
<rect x="340.539" y="312.999" width="22" height="4" rx="2" transform="rotate(22.6196 340.539 312.999)" fill="#D9D9D9"/>
<rect x="300.385" y="328.768" width="22" height="4" rx="2" transform="rotate(22.6196 300.385 328.768)" fill="#D9D9D9"/>
<rect x="334.77" y="326.845" width="22" height="4" rx="2" transform="rotate(22.6196 334.77 326.845)" fill="#D9D9D9"/>
<rect x="369.154" y="324.922" width="22" height="4" rx="2" transform="rotate(22.6196 369.154 324.922)" fill="#D9D9D9"/>
<rect x="403.539" y="322.999" width="22" height="4" rx="2" transform="rotate(22.6196 403.539 322.999)" fill="#D9D9D9"/>
<rect x="374.923" y="311.076" width="22" height="4" rx="2" transform="rotate(22.6196 374.923 311.076)" fill="#D9D9D9"/>
<rect x="462.308" y="239.152" width="22" height="4" rx="2" transform="rotate(-157.38 462.308 239.152)" fill="#D9D9D9"/>
<rect x="439.461" y="213.383" width="22" height="4" rx="2" transform="rotate(-157.38 439.461 213.383)" fill="#D9D9D9"/>
<rect x="416.615" y="187.614" width="22" height="4" rx="2" transform="rotate(-157.38 416.615 187.614)" fill="#D9D9D9"/>
<rect x="393.769" y="161.845" width="22" height="4" rx="2" transform="rotate(-157.38 393.769 161.845)" fill="#D9D9D9"/>
<rect x="370.923" y="136.076" width="22" height="4" rx="2" transform="rotate(-157.38 370.923 136.076)" fill="#D9D9D9"/>
<rect x="256.461" y="88.384" width="22" height="4" rx="2" transform="rotate(-157.38 256.461 88.384)" fill="#D9D9D9"/>
<rect x="263.384" y="71.7685" width="22" height="4" rx="2" transform="rotate(-157.38 263.384 71.7685)" fill="#D9D9D9"/>
<rect x="279.307" y="114.153" width="22" height="4" rx="2" transform="rotate(-157.38 279.307 114.153)" fill="#D9D9D9"/>
<rect x="433.692" y="227.229" width="22" height="4" rx="2" transform="rotate(-157.38 433.692 227.229)" fill="#D9D9D9"/>
<rect x="410.846" y="201.46" width="22" height="4" rx="2" transform="rotate(-157.38 410.846 201.46)" fill="#D9D9D9"/>
<rect x="388" y="175.691" width="22" height="4" rx="2" transform="rotate(-157.38 388 175.691)" fill="#D9D9D9"/>
<rect x="365.153" y="149.922" width="22" height="4" rx="2" transform="rotate(-157.38 365.153 149.922)" fill="#D9D9D9"/>
<rect x="342.307" y="124.153" width="22" height="4" rx="2" transform="rotate(-157.38 342.307 124.153)" fill="#D9D9D9"/>
<rect x="349.23" y="107.537" width="22" height="4" rx="2" transform="rotate(-157.38 349.23 107.537)" fill="#D9D9D9"/>
<rect x="227.845" y="76.461" width="22" height="4" rx="2" transform="rotate(-157.38 227.845 76.461)" fill="#D9D9D9"/>
<rect x="244.923" y="116.076" width="22" height="4" rx="2" transform="rotate(-157.38 244.923 116.076)" fill="#D9D9D9"/>
<rect x="210.538" y="118" width="22" height="4" rx="2" transform="rotate(-157.38 210.538 118)" fill="#D9D9D9"/>
<rect x="176.153" y="119.923" width="22" height="4" rx="2" transform="rotate(-157.38 176.153 119.923)" fill="#D9D9D9"/>
<rect x="405.077" y="215.306" width="22" height="4" rx="2" transform="rotate(-157.38 405.077 215.306)" fill="#D9D9D9"/>
<rect x="382.231" y="189.537" width="22" height="4" rx="2" transform="rotate(-157.38 382.231 189.537)" fill="#D9D9D9"/>
<rect x="359.384" y="163.768" width="22" height="4" rx="2" transform="rotate(-157.38 359.384 163.768)" fill="#D9D9D9"/>
<rect x="336.538" y="137.999" width="22" height="4" rx="2" transform="rotate(-157.38 336.538 137.999)" fill="#D9D9D9"/>
<rect x="313.692" y="112.23" width="22" height="4" rx="2" transform="rotate(-157.38 313.692 112.23)" fill="#D9D9D9"/>
<rect x="320.615" y="95.6144" width="22" height="4" rx="2" transform="rotate(-157.38 320.615 95.6144)" fill="#D9D9D9"/>
<rect x="250.692" y="102.23" width="22" height="4" rx="2" transform="rotate(-157.38 250.692 102.23)" fill="#D9D9D9"/>
<rect x="216.307" y="104.153" width="22" height="4" rx="2" transform="rotate(-157.38 216.307 104.153)" fill="#D9D9D9"/>
<rect x="181.922" y="106.077" width="22" height="4" rx="2" transform="rotate(-157.38 181.922 106.077)" fill="#D9D9D9"/>
<rect x="147.538" y="108" width="22" height="4" rx="2" transform="rotate(-157.38 147.538 108)" fill="#D9D9D9"/>
<rect x="376.461" y="203.383" width="22" height="4" rx="2" transform="rotate(-157.38 376.461 203.383)" fill="#D9D9D9"/>
<rect x="353.615" y="177.614" width="22" height="4" rx="2" transform="rotate(-157.38 353.615 177.614)" fill="#D9D9D9"/>
<rect x="330.769" y="151.845" width="22" height="4" rx="2" transform="rotate(-157.38 330.769 151.845)" fill="#D9D9D9"/>
<rect x="307.923" y="126.076" width="22" height="4" rx="2" transform="rotate(-157.38 307.923 126.076)" fill="#D9D9D9"/>
<rect x="285.076" y="100.307" width="22" height="4" rx="2" transform="rotate(-157.38 285.076 100.307)" fill="#D9D9D9"/>
<rect x="291.999" y="83.6915" width="22" height="4" rx="2" transform="rotate(-157.38 291.999 83.6915)" fill="#D9D9D9"/>
<rect x="222.076" y="90.3072" width="22" height="4" rx="2" transform="rotate(-157.38 222.076 90.3072)" fill="#D9D9D9"/>
<rect x="187.692" y="92.2304" width="22" height="4" rx="2" transform="rotate(-157.38 187.692 92.2304)" fill="#D9D9D9"/>
<rect x="153.307" y="94.1536" width="22" height="4" rx="2" transform="rotate(-157.38 153.307 94.1536)" fill="#D9D9D9"/>
<rect x="193.461" y="78.3842" width="22" height="4" rx="2" transform="rotate(-157.38 193.461 78.3842)" fill="#D9D9D9"/>
<rect x="159.076" y="80.3075" width="22" height="4" rx="2" transform="rotate(-157.38 159.076 80.3075)" fill="#D9D9D9"/>
<rect x="124.692" y="82.2307" width="22" height="4" rx="2" transform="rotate(-157.38 124.692 82.2307)" fill="#D9D9D9"/>
<rect x="90.307" y="84.1539" width="22" height="4" rx="2" transform="rotate(-157.38 90.307 84.1539)" fill="#D9D9D9"/>
<rect x="118.922" y="96.0769" width="22" height="4" rx="2" transform="rotate(-157.38 118.922 96.0769)" fill="#D9D9D9"/>
</svg>
