<svg width="138" height="948" viewBox="0 0 138 948" fill="none" xmlns="http://www.w3.org/2000/svg">
<path d="M69.5 587.5H109C111.761 587.5 114 589.739 114 592.5V731.5C114 734.261 116.239 736.5 119 736.5H138" stroke="#7E7E7E"/>
<path d="M69.0001 0L69 948" stroke="#7E7E7E"/>
<circle cx="69" cy="588" r="4" fill="#7E7E7E"/>
<circle cx="69" cy="891" r="4" fill="#7E7E7E"/>
<circle cx="69" cy="736" r="4" fill="#7E7E7E"/>
<circle cx="69" cy="291" r="4" fill="#7E7E7E"/>
<path d="M69.4996 291.226L1 291" stroke="#7E7E7E"/>
<path d="M69.5 891H91.5C94.2614 891 96.5 888.761 96.5 886V1.5" stroke="#7E7E7E"/>
<path d="M138 144.5H101.5C98.7386 144.5 96.5 146.739 96.5 149.5V174.5" stroke="#7E7E7E"/>
<path d="M138 428H101.5C98.7386 428 96.5 430.239 96.5 433V457" stroke="#7E7E7E"/>
<path d="M68.5 736H0" stroke="#7E7E7E"/>
</svg>
